<svg t="1766555815292" class="icon" viewBox="0 0 1024 1024" version="1.1" xmlns="http://www.w3.org/2000/svg"
     p-id="14448" width="40" height="40">
    <path d="M80 112m32 0l256 0q32 0 32 32l0 256q0 32-32 32l-256 0q-32 0-32-32l0-256q0-32 32-32Z" fill="#F9E3AE"
          p-id="14449"></path>
    <path d="M112 432h128V112H112a32 32 0 0 0-32 32v256a32 32 0 0 0 32 32z" fill="#FAEFDE" p-id="14450"></path>
    <path d="M602.926037 783.996118m22.627417-22.627417l135.764502-135.764502q22.627417-22.627417 45.254834 0l135.764502 135.764502q22.627417 22.627417 0 45.254834l-135.764502 135.764502q-22.627417 22.627417-45.254834 0l-135.764502-135.764502q-22.627417-22.627417 0-45.254834Z"
          fill="#72CAAF" p-id="14451"></path>
    <path d="M784 272m-176 0a176 176 0 1 0 352 0 176 176 0 1 0-352 0Z" fill="#F283A5" p-id="14452"></path>
    <path d="M784 272m-112 0a112 112 0 1 0 224 0 112 112 0 1 0-224 0Z" fill="#ED7899" p-id="14453"></path>
    <path d="M226.08 632l-148.32 256a16 16 0 0 0 13.92 24h296.64a16 16 0 0 0 13.92-24l-148.32-256a16 16 0 0 0-27.84 0z"
          fill="#85CBF8" p-id="14454"></path>
    <path d="M934.72 806.56l-136 135.84a32 32 0 0 1-22.56 9.28v-336a32 32 0 0 1 22.56 9.28l135.84 135.84a32 32 0 0 1 0.16 45.76z"
          fill="#5DBC9D" p-id="14455"></path>
    <path d="M91.68 912H240V624a16 16 0 0 0-13.92 8l-148.16 256a16 16 0 0 0 13.76 24z" fill="#6FC6F0"
          p-id="14456"></path>
    <path d="M384 768v32a16 16 0 0 0 32 0v-32a16 16 0 0 0-32 0zM480 752a16 16 0 0 0-16 16v32a16 16 0 0 0 32 0v-32a16 16 0 0 0-16-16zM560 752a16 16 0 0 0-16 16v32a16 16 0 0 0 32 0v-32a16 16 0 0 0-16-16zM817.92 614.24a46.24 46.24 0 0 0-21.76-11.84l63.04-63.04a16 16 0 0 0-22.56-22.56L800 553.44v-90.24a192 192 0 1 0-32 0v90.24l-36.64-36.64a16 16 0 0 0-22.56 22.56l63.04 63.04a46.24 46.24 0 0 0-21.76 11.84l-135.84 135.68a48 48 0 0 0 0 67.84l135.68 135.84a48 48 0 0 0 67.84 0l135.84-135.84a48 48 0 0 0 0-67.84zM624 272a160 160 0 1 1 160 160 160 160 0 0 1-160-160z m307.04 523.36L795.2 931.2a16 16 0 0 1-22.56 0l-135.84-135.84a16 16 0 0 1 0-22.56l135.84-135.84a16 16 0 0 1 22.56 0l135.84 135.84a16 16 0 0 1 0 22.56z"
          fill="#8D6C9F" p-id="14457"></path>
    <path d="M587.36 260.64l-64-64a16 16 0 0 0-22.56 22.56l36.64 36.8H416V144a48 48 0 0 0-48-48H112a48 48 0 0 0-48 48v256a48 48 0 0 0 48 48h256a48 48 0 0 0 48-48v-112h121.44l-36.64 36.64a16 16 0 1 0 22.56 22.56l64-64a16 16 0 0 0 0-22.56zM384 400a16 16 0 0 1-16 16H112a16 16 0 0 1-16-16V144a16 16 0 0 1 16-16h256a16 16 0 0 1 16 16z"
          fill="#8D6C9F" p-id="14458"></path>
    <path d="M228.64 452.64l-64 64a16 16 0 0 0 22.56 22.56l36.8-36.64V608a16 16 0 0 0 0 3.84 32 32 0 0 0-12.48 12L64 880a32 32 0 0 0 0 32 32 32 0 0 0 27.68 16h296.64A32 32 0 0 0 416 912a32 32 0 0 0 0-32l-148.32-256a32 32 0 0 0-12.48-12A16 16 0 0 0 256 608v-105.44l36.64 36.64a16 16 0 0 0 22.56-22.56l-64-64a16 16 0 0 0-22.56 0zM388.32 896H91.68L240 640z"
          fill="#8D6C9F" p-id="14459"></path>
</svg>
